<svg width="146" height="35" viewBox="0 0 146 35" fill="none" xmlns="http://www.w3.org/2000/svg">
<path fill-rule="evenodd" clip-rule="evenodd" d="M120.857 12.7333V8.3972H117.225V0H109.691V8.3972H105.969V12.7485C105.526 11.5983 104.852 10.5519 103.843 9.71351C102.847 8.88383 101.464 8.25636 100.052 7.8927L83.417 20.9197V33.5888H90.9518V19.8809C90.9518 16.8852 91.7688 14.6157 95.2638 14.6157C98.6681 14.6157 99.2128 17.0213 99.2128 19.8355V33.5888H106.748V17.8384C106.748 16.6031 106.66 15.328 106.382 14.1164H109.691V33.5888H117.225V14.1164H120.01C118.942 16.1298 118.357 18.477 118.357 20.9703C118.357 28.4597 123.259 34.4512 131.021 34.4512C133.745 34.4512 137.013 33.4526 138.374 30.8654H138.465V33.5888H146V8.3972H138.465V11.0752H138.374C136.876 8.57876 133.79 7.53478 131.021 7.53478C126.625 7.53478 123.069 9.58045 120.857 12.7333ZM132.156 27.4157C135.832 27.4157 138.465 24.6015 138.465 20.9703C138.465 17.2937 135.787 14.5703 132.11 14.5703C128.434 14.5703 125.892 17.4752 125.892 21.0611C125.892 24.5561 128.615 27.4157 132.156 27.4157Z" fill="#074973"/>
<path d="M83.417 19.167V8.3972H90.4525V11.0752H90.5433C92.1319 8.48798 94.356 7.53478 97.3972 7.53478C97.6648 7.53478 97.9411 7.54764 98.2227 7.57283L83.417 19.167Z" fill="#074973"/>
<path fill-rule="evenodd" clip-rule="evenodd" d="M29.0498 16.7036C29.0498 12.9816 28.142 9.305 25.9632 6.26385C22.1504 0.998584 17.2029 0 11.1206 0H0V33.5888H11.7561C20.9795 33.5888 26.9066 29.4604 28.57 21.6067C28.8576 28.7084 34.7332 34.4058 41.9037 34.4058C47.5775 34.4058 52.0258 30.7292 54.2045 25.6909H46.4881C45.2626 27.2342 43.9463 28.0512 41.9037 28.0512C38.9534 28.0512 36.4569 26.281 36.003 23.2852H54.3423C55.1274 28.8137 58.7354 33.1544 64.2115 34.2067L81.8237 20.4147V8.3972H74.289V11.0752H74.1982C72.7003 8.57876 69.6138 7.53478 66.845 7.53478C60.505 7.53478 55.9114 11.7896 54.578 17.4842C53.0595 11.7466 48.1413 7.53478 41.7676 7.53478C35.6236 7.53478 30.5751 11.8231 29.0396 17.4624C29.0464 17.2122 29.0498 16.9593 29.0498 16.7036ZM20.471 16.8398C20.471 22.2866 18.1107 26.054 12.2554 26.054H8.57876V7.53478H12.3008C18.0199 7.53478 20.471 11.4837 20.471 16.8398ZM47.5321 18.2015H36.0938C36.6838 15.4781 39.0895 13.8894 41.8129 13.8894C44.5364 13.8894 46.942 15.4781 47.5321 18.2015ZM67.9797 27.4157C71.6563 27.4157 74.289 24.6015 74.289 20.9703C74.289 17.2937 71.6109 14.5703 67.9343 14.5703C64.2577 14.5703 61.7159 17.4752 61.7159 21.0611C61.7159 24.5561 64.4393 27.4157 67.9797 27.4157Z" fill="#545C60"/>
<path d="M81.8237 22.1674L66.1576 34.4353C66.3842 34.4459 66.6133 34.4512 66.845 34.4512C69.5684 34.4512 72.8365 33.4526 74.1982 30.8654H74.289V33.5888H81.8237V22.1674Z" fill="#545C60"/>
</svg>
