<?xml version="1.0" encoding="UTF-8"?>
<svg width="19px" height="17px" viewBox="0 0 19 17" version="1.1" xmlns="http://www.w3.org/2000/svg" xmlns:xlink="http://www.w3.org/1999/xlink">
    <!-- Generator: Sketch 61.2 (89653) - https://sketch.com -->
    <title>doc</title>
    <desc>Created with Sketch.</desc>
    <g id="Symbols" stroke="none" stroke-width="1" fill="none" fill-rule="evenodd">
        <g id="file-doc" fill="#0067F4" fill-rule="nonzero">
            <g id="doc">
                <path d="M12.0333333,6.2962963 L12.0333333,4.40740741 L12.0333333,4.40740741 L8.23333333,0 L1.26841475,0 C0.567888625,0 0,0.565620424 0,1.26387441 L0,15.7361256 C0,16.4341442 0.564252747,17 1.26503388,17 L10.7682995,17 C11.4669584,17 12.0333333,16.4344589 12.0333333,15.7465364 L12.0333333,14.4814815 L17.0956627,14.4814815 C18.1473991,14.4814815 19,13.6363521 19,12.5933572 L19,8.18442056 C19,7.14163836 18.1538721,6.2962963 17.0956627,6.2962963 L12.0333333,6.2962963 L12.0333333,6.2962963 L12.0333333,6.2962963 Z M11.4,14.4814815 L11.4,15.7448977 C11.4,16.090219 11.1164583,16.3703704 10.7666919,16.3703704 L1.26664146,16.3703704 C0.921315656,16.3703704 0.633333333,16.0897562 0.633333333,15.7436011 L0.633333333,1.25639887 C0.633333333,0.916276628 0.915632312,0.62962963 1.26386575,0.62962963 L7.6,0.62962963 L7.6,3.77405097 C7.6,4.47883587 8.16651426,5.03703704 8.86534496,5.03703704 L11.4,5.03703704 L11.4,6.2962963 L6.33767059,6.2962963 C5.2859342,6.2962963 4.43333333,7.14142567 4.43333333,8.18442056 L4.43333333,12.5933572 C4.43333333,13.6361394 5.27946128,14.4814815 6.33767059,14.4814815 L11.4,14.4814815 L11.4,14.4814815 L11.4,14.4814815 Z M17.1034444,6.92592593 C17.7951823,6.92592593 18.3666667,7.48746514 18.3666667,8.18015885 L18.3666667,8.18015885 L18.3666667,12.5976189 C18.3666667,13.2850742 17.8011028,13.8518519 17.1034444,13.8518519 L17.1034444,13.8518519 L6.32988895,13.8518519 C5.63815107,13.8518519 5.06666667,13.2903126 5.06666667,12.5976189 L5.06666667,12.5976189 L5.06666667,8.18015885 C5.06666667,7.49270353 5.63223055,6.92592593 6.32988895,6.92592593 L6.32988895,6.92592593 Z M8.23333333,0.944444444 L11.2099691,4.40740741 L8.86460124,4.40740741 C8.5187457,4.40740741 8.23333333,4.12303624 8.23333333,3.77224663 L8.23333333,3.77224663 L8.23333333,0.944444444 Z M8.23024172,8.18518519 C8.93386346,8.18518519 9.5,8.75064334 9.5,9.44817129 L9.5,9.44817129 L9.5,11.3296065 C9.5,12.0343914 8.93150987,12.5925926 8.23024172,12.5925926 L8.23024172,12.5925926 L6.33333333,12.5925926 L6.33333333,8.18518519 Z M8.23399415,8.81481481 L6.96666667,8.81481481 L6.96666667,11.962963 L8.23399415,11.962963 C8.58340954,11.962963 8.86666667,11.6835858 8.86666667,11.3334545 L8.86666667,9.44432324 C8.86666667,9.09665536 8.58631514,8.81481481 8.23399415,8.81481481 Z M12.0302417,8.18518519 C12.7338635,8.18518519 13.3,8.75064334 13.3,9.44817129 L13.3,9.44817129 L13.3,11.3296065 C13.3,12.0343914 12.7315099,12.5925926 12.0302417,12.5925926 L12.0302417,12.5925926 L11.4030916,12.5925926 C10.6994699,12.5925926 10.1333333,12.0271344 10.1333333,11.3296065 L10.1333333,11.3296065 L10.1333333,9.44817129 C10.1333333,8.74338636 10.7018235,8.18518519 11.4030916,8.18518519 L11.4030916,8.18518519 Z M12.0339942,8.81481481 L11.3993392,8.81481481 C11.0499238,8.81481481 10.7666667,9.09419193 10.7666667,9.44432324 L10.7666667,11.3334545 C10.7666667,11.6811224 11.0470182,11.962963 11.3993392,11.962963 L12.0339942,11.962963 C12.3834095,11.962963 12.6666667,11.6835858 12.6666667,11.3334545 L12.6666667,9.44432324 C12.6666667,9.09665536 12.3863151,8.81481481 12.0339942,8.81481481 Z M15.8302417,12.5925926 L15.2030916,12.5925926 C14.4994699,12.5925926 13.9333333,12.0271344 13.9333333,11.3296065 L13.9333333,9.44817129 C13.9333333,8.74338636 14.5018235,8.18518519 15.2030916,8.18518519 L15.8302417,8.18518519 C16.5326099,8.18518519 17.0979823,8.74863029 17.1,9.44444444 L16.4666667,9.44444444 C16.4666667,9.09665536 16.1863151,8.81481481 15.8339942,8.81481481 L15.1993392,8.81481481 C14.8499238,8.81481481 14.5666667,9.09419193 14.5666667,9.44432324 L14.5666667,11.3334545 C14.5666667,11.6811224 14.8470182,11.962963 15.1993392,11.962963 L15.8339942,11.962963 C16.1834095,11.962963 16.4666667,11.6835858 16.4666667,11.3334545 L17.1,11.3333333 C17.0979948,12.0363582 16.5302733,12.5925926 15.8302417,12.5925926 Z" id="document-file-doc"></path>
            </g>
        </g>
    </g>
</svg>