<svg width="21" height="17" viewBox="0 0 21 17" fill="none" xmlns="http://www.w3.org/2000/svg">
<path fill-rule="evenodd" clip-rule="evenodd" d="M12.4688 4.40741V6.2963H16.6157C17.701 6.2963 18.5807 7.14164 18.5807 8.18442V12.5934C18.5807 13.6364 17.7009 14.4815 16.6157 14.4815H12.4688V15.7465C12.4688 16.4345 11.8819 17 11.1579 17H1.31081C0.58467 17 0 16.4341 0 15.7361V1.26387C0 0.56562 0.588437 0 1.31431 0H8.53125L12.4688 4.40741ZM11.8125 15.7449V14.4815H3.93375C2.8485 14.4815 1.96875 13.6361 1.96875 12.5934V8.18442C1.96875 7.14143 2.84851 6.2963 3.93375 6.2963H11.8125V5.03704H9.18613C8.46201 5.03704 7.875 4.47884 7.875 3.77405V0.62963H1.3096C0.948764 0.62963 0.65625 0.916277 0.65625 1.2564V15.7436C0.65625 16.0898 0.954653 16.3704 1.31247 16.3704H11.1563C11.5187 16.3704 11.8125 16.0902 11.8125 15.7449ZM17.9245 8.18016C17.9245 7.48746 17.3349 6.92593 16.6071 6.92593H3.94231C3.21478 6.92593 2.625 7.4927 2.625 8.18016V12.5976C2.625 13.2903 3.21453 13.8519 3.94231 13.8519H16.6071C17.3347 13.8519 17.9245 13.2851 17.9245 12.5976V10.3889V8.18016ZM11.6156 4.40741L8.53125 0.944444V3.77225C8.53125 4.12304 8.82699 4.40741 9.18536 4.40741H11.6156Z" fill="#0067F4"/>
<path d="M5.10593 12.4685V8.10639H6.33726C6.71675 8.10639 7.0523 8.19028 7.3439 8.35806C7.63551 8.52583 7.86021 8.76451 8.01799 9.07409C8.17778 9.38367 8.25867 9.73919 8.26067 10.1406V10.4193C8.26067 10.8307 8.18077 11.1912 8.02099 11.5008C7.8632 11.8104 7.63651 12.0481 7.34091 12.2138C7.0473 12.3796 6.70477 12.4645 6.3133 12.4685H5.10593ZM5.68115 8.57976V11.9981H6.28633C6.72973 11.9981 7.07427 11.8603 7.31994 11.5847C7.5676 11.3091 7.69144 10.9166 7.69144 10.4073V10.1526C7.69144 9.6573 7.57459 9.27282 7.34091 8.99919C7.10922 8.72356 6.77967 8.58375 6.35224 8.57976H5.68115ZM12.0625 8.57976H10.6604V12.4685H10.0882V8.57976H8.68909V8.10639H12.0625V8.57976ZM12.7097 12.4685V8.10639H13.941C14.3205 8.10639 14.656 8.19028 14.9476 8.35806C15.2392 8.52583 15.4639 8.76451 15.6217 9.07409C15.7815 9.38367 15.8624 9.73919 15.8644 10.1406V10.4193C15.8644 10.8307 15.7845 11.1912 15.6247 11.5008C15.4669 11.8104 15.2402 12.0481 14.9446 12.2138C14.651 12.3796 14.3085 12.4645 13.917 12.4685H12.7097ZM13.2849 8.57976V11.9981H13.8901C14.3335 11.9981 14.678 11.8603 14.9237 11.5847C15.1713 11.3091 15.2952 10.9166 15.2952 10.4073V10.1526C15.2952 9.6573 15.1783 9.27282 14.9446 8.99919C14.713 8.72356 14.3834 8.58375 13.956 8.57976H13.2849Z" fill="#0067F4"/>
</svg>
