<?xml version="1.0" encoding="UTF-8"?>
<svg width="30px" height="27px" viewBox="0 0 30 27" version="1.1" xmlns="http://www.w3.org/2000/svg" xmlns:xlink="http://www.w3.org/1999/xlink">
    <!-- Generator: Sketch 61.2 (89653) - https://sketch.com -->
    <title>iconfinder_icon-83-document-file-eps_315011</title>
    <desc>Created with Sketch.</desc>
    <g id="Page-1" stroke="none" stroke-width="1" fill="none" fill-rule="evenodd">
        <g id="iconfinder_icon-83-document-file-eps_315011" fill="#157EFB" fill-rule="nonzero">
            <path d="M19,10 L19,7 L19,7 L13,0 L2.00276013,0 C0.89666625,0 0,0.89833832 0,2.00732994 L0,24.9926701 C0,26.1012878 0.89092539,27 1.99742191,27 L17.0025781,27 C18.1057238,27 19,26.1017876 19,25.0092049 L19,23 L26.9931517,23 C28.6537881,23 30,21.6577357 30,20.0012144 L30,12.9987856 C30,11.3426021 28.6640085,10 26.9931517,10 L19,10 L19,10 L19,10 Z M18,23 L18,25.0066023 C18,25.5550537 17.5523026,26 17.0000398,26 L1.9999602,26 C1.45470893,26 1,25.5543187 1,25.004543 L1,1.99545703 C1,1.45526288 1.44573523,1 1.9955775,1 L12,1 L12,5.99408095 C12,7.1134452 12.8944962,8 13.9979131,8 L18,8 L18,10 L10.0068483,10 C8.3462119,10 7,11.3422643 7,12.9987856 L7,20.0012144 C7,21.6573979 8.3359915,23 10.0068483,23 L18,23 L18,23 L18,23 Z M27.0054385,11 C28.0976562,11 29,11.8918564 29,12.992017 L29,12.992017 L29,20.007983 C29,21.0998238 28.1070044,22 27.0054385,22 L27.0054385,22 L9.9945615,22 C8.9023438,22 8,21.1081436 8,20.007983 L8,20.007983 L8,12.992017 C8,11.9001762 8.8929956,11 9.9945615,11 L9.9945615,11 Z M13,1.5 L17.6999512,7 L13.9967388,7 C13.4506511,7 13,6.54835167 13,5.99121523 L13,5.99121523 L13,1.5 Z M11,17 L11,19 L15,19 L15,20 L11,20 L10,20 L10,13 L11,13 L15,13 L15,14 L11,14 L11,16 L14,16 L14,17 L11,17 L11,17 Z M18.9951185,13 C20.1061002,13 21,13.8954305 21,15 C21,16.1122704 20.102384,17 18.9951185,17 L18.9951185,17 L17,17 L17,20 L16,20 L16,13 Z M19.0010434,14 L17,14 L17,16 L19.0010434,16 C19.5527519,16 20,15.5561352 20,15 C20,14.4477153 19.5573397,14 19.0010434,14 Z M24.0048815,13 C22.897616,13 22,13.8877296 22,15 C22,16.1045695 22.8877296,17 24,17 L24.9906311,17 C25.5480902,17 26,17.4438648 26,18 C26,18.5522847 25.5573397,19 25.0010434,19 L23.9989566,19 C23.4472481,19 23,18.543716 23,18.0044713 L23,17.9931641 L22,17.9931641 L22,17.998921 C22,19.1040864 22.8938998,20 24.0048815,20 L24.9951185,20 C26.102384,20 27,19.1122704 27,18 C27,16.8954305 26.1122704,16 25,16 L24.0093689,16 C23.4519098,16 23,15.5561352 23,15 C23,14.4477153 23.4426603,14 23.9989566,14 L25.0010434,14 C25.5527519,14 26,14.453186 26,15 L27,15 C27,13.8954305 26.1061002,13 24.9951185,13 L24.0048815,13 L24.0048815,13 Z" id="document-file-eps"></path>
        </g>
    </g>
</svg>