<svg width="145" height="130" viewBox="0 0 145 130" fill="none" xmlns="http://www.w3.org/2000/svg">
<g clip-path="url(#clip0)">
<path d="M91.4815 48.1482V33.7037L62.5926 0H9.64292C4.31728 0 0 4.32533 0 9.66492V120.335C0 125.673 4.28964 130 9.61722 130H81.8643C87.1757 130 91.4815 125.675 91.4815 120.415V110.741H129.967C137.963 110.741 144.444 104.278 144.444 96.3022V62.5868C144.444 54.6125 138.012 48.1482 129.967 48.1482H91.4815ZM86.6667 110.741V120.402C86.6667 123.043 84.5111 125.185 81.852 125.185H9.62944C7.00415 125.185 4.81481 123.039 4.81481 120.392V9.60776C4.81481 7.00682 6.96095 4.81482 9.60834 4.81482H57.7778V28.8604C57.7778 34.2499 62.0846 38.5185 67.3974 38.5185H86.6667V48.1482H48.1811C40.1855 48.1482 33.7037 54.6109 33.7037 62.5868V96.3022C33.7037 104.276 40.1363 110.741 48.1811 110.741H86.6667ZM130.026 52.963C135.285 52.963 139.63 57.2571 139.63 62.5542V96.3347C139.63 101.592 135.33 105.926 130.026 105.926H48.122C42.8631 105.926 38.5185 101.632 38.5185 96.3347V62.5542C38.5185 57.2971 42.8181 52.963 48.122 52.963H130.026ZM62.5926 7.22222L85.222 33.7037H67.3917C64.7624 33.7037 62.5926 31.5291 62.5926 28.8466V7.22222Z" fill="#C4183C"/>
<path d="M50.2395 95.1498C49.935 95.1498 49.6762 95.0585 49.4631 94.8758C49.2804 94.6626 49.189 94.4038 49.189 94.0993V64.2739C49.189 63.939 49.2804 63.6802 49.4631 63.4975C49.6762 63.2843 49.935 63.1778 50.2395 63.1778H68.8747C69.2096 63.1778 69.4684 63.2843 69.6511 63.4975C69.8643 63.6802 69.9709 63.939 69.9709 64.2739V66.1009C69.9709 66.4054 69.8643 66.6642 69.6511 66.8774C69.4684 67.0601 69.2096 67.1514 68.8747 67.1514H53.6194V77.7936H67.9612C68.2961 77.7936 68.555 77.9001 68.7377 78.1133C68.9508 78.296 69.0574 78.5548 69.0574 78.8897V80.7167C69.0574 81.0212 68.9508 81.28 68.7377 81.4932C68.5245 81.6759 68.2657 81.7672 67.9612 81.7672H53.6194V94.0993C53.6194 94.4038 53.5129 94.6626 53.2997 94.8758C53.0866 95.0585 52.8278 95.1498 52.5233 95.1498H50.2395Z" fill="#C4183C"/>
<path d="M117.257 95.6066C113.268 95.6066 110.177 94.5713 107.985 92.5007C105.823 90.3997 104.681 87.2482 104.559 83.0461C104.529 82.1326 104.514 80.8385 104.514 79.1638C104.514 77.4891 104.529 76.2102 104.559 75.3271C104.681 71.2165 105.869 68.0954 108.122 65.9639C110.375 63.802 113.42 62.721 117.257 62.721C121.063 62.721 124.093 63.802 126.346 65.9639C128.599 68.0954 129.787 71.2165 129.908 75.3271C129.969 77.0932 130 78.3721 130 79.1638C130 79.925 129.969 81.2191 129.908 83.0461C129.787 87.2482 128.63 90.3997 126.437 92.5007C124.275 94.5713 121.215 95.6066 117.257 95.6066ZM117.257 91.7242C119.662 91.7242 121.581 90.9935 123.012 89.5319C124.443 88.0703 125.219 85.8322 125.341 82.8177C125.402 80.9908 125.432 79.7728 125.432 79.1638C125.432 78.4939 125.402 77.2759 125.341 75.5098C125.219 72.4953 124.428 70.2573 122.966 68.7957C121.535 67.3341 119.632 66.6033 117.257 66.6033C114.851 66.6033 112.918 67.3341 111.456 68.7957C110.025 70.2573 109.248 72.4953 109.127 75.5098C109.096 76.3929 109.081 77.6109 109.081 79.1638C109.081 80.6863 109.096 81.9043 109.127 82.8177C109.248 85.8322 110.025 88.0703 111.456 89.5319C112.918 90.9935 114.851 91.7242 117.257 91.7242Z" fill="#C4183C"/>
<path d="M77.011 95C76.7179 95 76.4689 94.9086 76.2637 94.7257C76.0879 94.5124 76 94.2533 76 93.9486V64.0971C76 63.7619 76.0879 63.5029 76.2637 63.32C76.4689 63.1067 76.7179 63 77.011 63H88.1758C91.4872 63 94.0952 63.8381 96 65.5143C97.9048 67.1905 98.8571 69.6133 98.8571 72.7829C98.8571 75.9524 97.9048 78.3752 96 80.0514C94.1245 81.6971 91.5165 82.52 88.1758 82.52H80.3956V93.9486C80.3956 94.2533 80.293 94.5124 80.0879 94.7257C79.8828 94.9086 79.6337 95 79.3407 95H77.011ZM87.956 78.68C90.0952 78.68 91.707 78.1771 92.7912 77.1714C93.9048 76.1657 94.4615 74.7029 94.4615 72.7829C94.4615 70.8629 93.9194 69.4 92.8352 68.3943C91.7509 67.3581 90.1245 66.84 87.956 66.84H80.3516V78.68H87.956Z" fill="#C4183C"/>
</g>
<defs>
<clipPath id="clip0">
<rect width="144.444" height="130" fill="white"/>
</clipPath>
</defs>
</svg>
