<?xml version="1.0" encoding="UTF-8"?>
<svg width="19" height="27" viewBox="0 0 19 27" fill="none" xmlns="http://www.w3.org/2000/svg">
<path fill-rule="evenodd" clip-rule="evenodd" d="M19 7.03125V7L13 0H2.00276C0.896666 0 0 0.898338 0 2.00733V24.9927C0 26.1013 0.890925 27 1.99742 27H17.0026C18.1057 27 19 26.1018 19 25.0092V23V22H18V23V24.2969V25.0066C18 25.5551 17.5523 26 17 26H1.99996C1.45471 26 1 25.5543 1 25.0045V1.99546C1 1.45526 1.44574 1 1.99558 1H12V5.99408C12 7.11345 12.8945 8 13.9979 8H18V8.79688V10V11H19V10V7.03125ZM13 1.5L17.7 7H13.9967C13.4507 7 13 6.54835 13 5.99122V1.5Z" fill="#157EFB"/>
<rect x="18" y="10.25" width="1" height="12.9219" fill="#157EFB"/>
</svg>

