<svg width="21" height="17" viewBox="0 0 21 17" fill="none" xmlns="http://www.w3.org/2000/svg">
<path fill-rule="evenodd" clip-rule="evenodd" d="M12.4688 4.40741V6.2963H19.035C20.1203 6.2963 21 7.14164 21 8.18442V12.5934C21 13.6364 20.1202 14.4815 19.035 14.4815H12.4688V15.7465C12.4688 16.4345 11.8819 17 11.1579 17H1.31081C0.58467 17 0 16.4341 0 15.7361V1.26387C0 0.56562 0.588437 0 1.31431 0H8.53125L12.4688 4.40741ZM11.8125 15.7449V14.4815H3.93375C2.8485 14.4815 1.96875 13.6361 1.96875 12.5934V8.18442C1.96875 7.14143 2.84851 6.2963 3.93375 6.2963H11.8125V5.03704H9.18613C8.46201 5.03704 7.875 4.47884 7.875 3.77405V0.62963H1.3096C0.948764 0.62963 0.65625 0.916277 0.65625 1.2564V15.7436C0.65625 16.0898 0.954653 16.3704 1.31247 16.3704H11.1563C11.5187 16.3704 11.8125 16.0902 11.8125 15.7449ZM20.3438 8.18016C20.3438 7.48746 19.7542 6.92593 19.0264 6.92593H3.94231C3.21478 6.92593 2.625 7.4927 2.625 8.18016V12.5976C2.625 13.2903 3.21453 13.8519 3.94231 13.8519H19.0264C19.754 13.8519 20.3438 13.2851 20.3438 12.5976V8.18016ZM11.6156 4.40741L8.53125 0.944444V3.77225C8.53125 4.12304 8.82699 4.40741 9.18536 4.40741H11.6156Z" fill="#0067F4"/>
<path d="M7.14785 12.4685H6.56963V10.4522H4.3706V12.4685H3.79538V8.10639H4.3706V9.98186H6.56963V8.10639H7.14785V12.4685ZM11.0935 8.57976H9.69142V12.4685H9.11919V8.57976H7.72008V8.10639H11.0935V8.57976ZM12.4836 8.10639L13.9097 11.6656L15.3358 8.10639H16.0818V12.4685H15.5066V10.7698L15.5605 8.93627L14.1284 12.4685H13.688L12.259 8.94526L12.3159 10.7698V12.4685H11.7407V8.10639H12.4836ZM17.6756 11.9981H19.7428V12.4685H17.0974V8.10639H17.6756V11.9981Z" fill="#0067F4"/>
</svg>
