<?xml version="1.0" encoding="UTF-8"?>
<svg width="21px" height="17px" viewBox="0 0 21 17" version="1.1" xmlns="http://www.w3.org/2000/svg" xmlns:xlink="http://www.w3.org/1999/xlink">
    <!-- Generator: Sketch 61.2 (89653) - https://sketch.com -->
    <title>indd</title>
    <desc>Created with Sketch.</desc>
    <g id="Symbols" stroke="none" stroke-width="1" fill="none" fill-rule="evenodd">
        <g id="file-indd" fill="#0067F4" fill-rule="nonzero">
            <g id="indd">
                <path d="M12.46875,6.2962963 L12.46875,4.40740741 L12.46875,4.40740741 L8.53125,0 L1.31431134,0 C0.588437227,0 0,0.565620424 0,1.26387441 L0,15.7361256 C0,16.4341442 0.584669789,17 1.31080813,17 L11.1579419,17 C11.8818812,17 12.46875,16.4344589 12.46875,15.7465364 L12.46875,14.4814815 L19.0350025,14.4814815 C20.1202406,14.4814815 21,13.6363521 21,12.5933572 L21,8.18442056 C21,7.14163836 20.1202518,6.2962963 19.0350025,6.2962963 L12.46875,6.2962963 L12.46875,6.2962963 L12.46875,6.2962963 Z M11.8125,14.4814815 L11.8125,15.7448977 C11.8125,16.090219 11.5186986,16.3703704 11.1562761,16.3703704 L1.31247388,16.3703704 C0.954652735,16.3703704 0.65625,16.0897562 0.65625,15.7436011 L0.65625,1.25639887 C0.65625,0.916276628 0.948763745,0.62962963 1.30959773,0.62962963 L7.875,0.62962963 L7.875,3.77405097 C7.875,4.47883587 8.46201313,5.03703704 9.18613047,5.03703704 L11.8125,5.03703704 L11.8125,6.2962963 L3.93374749,6.2962963 C2.84850934,6.2962963 1.96875,7.14142567 1.96875,8.18442056 L1.96875,12.5933572 C1.96875,13.6361394 2.84849821,14.4814815 3.93374749,14.4814815 L11.8125,14.4814815 L11.8125,14.4814815 L11.8125,14.4814815 Z M19.0264398,6.92592593 C19.7542155,6.92592593 20.34375,7.48746514 20.34375,8.18015885 L20.34375,8.18015885 L20.34375,12.5976189 C20.34375,13.2850742 19.7539701,13.8518519 19.0264398,13.8518519 L19.0264398,13.8518519 L3.94231027,13.8518519 C3.21453452,13.8518519 2.625,13.2903126 2.625,12.5976189 L2.625,12.5976189 L2.625,8.18015885 C2.625,7.49270353 3.2147799,6.92592593 3.94231027,6.92592593 L3.94231027,6.92592593 Z M8.53125,0.944444444 L11.615593,4.40740741 L9.18535984,4.40740741 C8.82698978,4.40740741 8.53125,4.12303624 8.53125,3.77224663 L8.53125,3.77224663 L8.53125,0.944444444 Z M8.53125,9.44444444 L8.53125,12.5925926 L7.875,12.5925926 L7.875,8.18518519 L8.53125,8.18518519 L10.5,11.3333333 L10.5,8.18518519 L11.15625,8.18518519 L11.15625,12.5925926 L10.5,12.5925926 L8.53125,9.44444444 L8.53125,9.44444444 Z M13.7780465,8.18518519 C14.5071283,8.18518519 15.09375,8.75064334 15.09375,9.44817129 L15.09375,9.44817129 L15.09375,11.3296065 C15.09375,12.0343914 14.5046895,12.5925926 13.7780465,12.5925926 L13.7780465,12.5925926 L11.8125,12.5925926 L11.8125,8.18518519 Z M13.7819347,8.81481481 L12.46875,8.81481481 L12.46875,11.962963 L13.7819347,11.962963 C14.1439934,11.962963 14.4375,11.6835858 14.4375,11.3334545 L14.4375,9.44432324 C14.4375,9.09665536 14.1470042,8.81481481 13.7819347,8.81481481 Z M17.7155465,8.18518519 C18.4446283,8.18518519 19.03125,8.75064334 19.03125,9.44817129 L19.03125,9.44817129 L19.03125,11.3296065 C19.03125,12.0343914 18.4421895,12.5925926 17.7155465,12.5925926 L17.7155465,12.5925926 L15.75,12.5925926 L15.75,8.18518519 Z M17.7194347,8.81481481 L16.40625,8.81481481 L16.40625,11.962963 L17.7194347,11.962963 C18.0814934,11.962963 18.375,11.6835858 18.375,11.3334545 L18.375,9.44432324 C18.375,9.09665536 18.0845042,8.81481481 17.7194347,8.81481481 Z M5.25,8.81481481 L5.25,11.962963 L4.59375,11.962963 L4.59375,12.5925926 L6.5625,12.5925926 L6.5625,11.962963 L5.90625,11.962963 L5.90625,8.81481481 L6.5625,8.81481481 L6.5625,8.18518519 L4.59375,8.18518519 L4.59375,8.81481481 L5.25,8.81481481 L5.25,8.81481481 Z" id="document-file-html"></path>
            </g>
        </g>
    </g>
</svg>