<svg width="21" height="17" viewBox="0 0 21 17" fill="none" xmlns="http://www.w3.org/2000/svg">
<path fill-rule="evenodd" clip-rule="evenodd" d="M12.4688 4.40741V6.2963H16.6157C17.701 6.2963 18.5807 7.14164 18.5807 8.18442V12.5934C18.5807 13.6364 17.7009 14.4815 16.6157 14.4815H12.4688V15.7465C12.4688 16.4345 11.8819 17 11.1579 17H1.31081C0.58467 17 0 16.4341 0 15.7361V1.26387C0 0.56562 0.588437 0 1.31431 0H8.53125L12.4688 4.40741ZM11.8125 15.7449V14.4815H3.93375C2.8485 14.4815 1.96875 13.6361 1.96875 12.5934V8.18442C1.96875 7.14143 2.84851 6.2963 3.93375 6.2963H11.8125V5.03704H9.18613C8.46201 5.03704 7.875 4.47884 7.875 3.77405V0.62963H1.3096C0.948764 0.62963 0.65625 0.916277 0.65625 1.2564V15.7436C0.65625 16.0898 0.954653 16.3704 1.31247 16.3704H11.1563C11.5187 16.3704 11.8125 16.0902 11.8125 15.7449ZM17.9245 8.18016C17.9245 7.48746 17.3349 6.92593 16.6071 6.92593H3.94231C3.21478 6.92593 2.625 7.4927 2.625 8.18016V12.5976C2.625 13.2903 3.21453 13.8519 3.94231 13.8519H16.6071C17.3347 13.8519 17.9245 13.2851 17.9245 12.5976V10.3889V8.18016ZM11.6156 4.40741L8.53125 0.944444V3.77225C8.53125 4.12304 8.82699 4.40741 9.18536 4.40741H11.6156Z" fill="#0067F4"/>
<path d="M7.23702 10.7039H6.2124V12.4685H5.63418V8.10639H7.07823C7.56957 8.10639 7.94706 8.21824 8.2107 8.44194C8.47634 8.66564 8.60916 8.9912 8.60916 9.41862C8.60916 9.69026 8.53526 9.92694 8.38746 10.1287C8.24166 10.3304 8.03793 10.4812 7.77629 10.5811L8.8009 12.4326V12.4685H8.18374L7.23702 10.7039ZM6.2124 10.2335H7.09621C7.38182 10.2335 7.60851 10.1596 7.77629 10.0118C7.94606 9.86402 8.03094 9.66629 8.03094 9.41862C8.03094 9.14899 7.95005 8.94227 7.78827 8.79846C7.62849 8.65465 7.3968 8.58175 7.09321 8.57976H6.2124V10.2335ZM12.1923 8.57976H10.7902V12.4685H10.218V8.57976H8.81888V8.10639H12.1923V8.57976ZM15.2452 10.5421H13.4147V12.4685H12.8395V8.10639H15.5418V8.57976H13.4147V10.0717H15.2452V10.5421Z" fill="#0067F4"/>
</svg>
