<?xml version="1.0" encoding="UTF-8"?>
<svg width="32px" height="27px" viewBox="0 0 32 27" version="1.1" xmlns="http://www.w3.org/2000/svg" xmlns:xlink="http://www.w3.org/1999/xlink">
    <!-- Generator: Sketch 61.2 (89653) - https://sketch.com -->
    <title>iconfinder_icon-84-document-file-tiff_315012</title>
    <desc>Created with Sketch.</desc>
    <g id="Page-1" stroke="none" stroke-width="1" fill="none" fill-rule="evenodd">
        <g id="iconfinder_icon-84-document-file-tiff_315012" fill="#157EFB" fill-rule="nonzero">
            <path d="M19,10 L19,7 L19,7 L13,0 L2.00276013,0 C0.896666251,0 0,0.89833832 0,2.00732994 L0,24.9926701 C0,26.1012878 0.890925393,27 1.99742191,27 L17.0025781,27 C18.1057238,27 19,26.1017876 19,25.0092049 L19,23 L29.0073661,23 C30.6601521,23 32,21.6577357 32,20.0012144 L32,12.9987856 C32,11.3426021 30.6610658,10 29.0073661,10 L19,10 L19,10 L19,10 Z M18,23 L18,25.0066023 C18,25.5550537 17.5523026,26 17.0000398,26 L1.9999602,26 C1.45470893,26 1,25.5543187 1,25.004543 L1,1.99545703 C1,1.45526288 1.44573523,1 1.9955775,1 L12,1 L12,5.99408095 C12,7.1134452 12.8944962,8 13.9979131,8 L18,8 L18,10 L7.99263394,10 C6.33984785,10 5,11.3422643 5,12.9987856 L5,20.0012144 C5,21.6573979 6.3389342,23 7.99263394,23 L18,23 L18,23 L18,23 Z M28.9964051,11 C30.1102368,11 31,11.8918564 31,12.992017 L31,12.992017 L31,20.007983 C31,21.0998238 30.10296,22 28.9964051,22 L28.9964051,22 L8.00359486,22 C6.88976324,22 6,21.1081436 6,20.007983 L6,20.007983 L6,12.992017 C6,11.9001762 6.89703997,11 8.00359486,11 L8.00359486,11 Z M13,1.5 L17.6999512,7 L13.9967388,7 C13.4506511,7 13,6.54835167 13,5.99121523 L13,5.99121523 L13,1.5 Z M10,14 L10,20 L11,20 L11,14 L13,14 L13,13 L8,13 L8,14 L10,14 L10,14 Z M15,14 L15,19 L14,19 L14,20 L17,20 L17,19 L16,19 L16,14 L17,14 L17,13 L14,13 L14,14 L15,14 L15,14 Z M19,16 L19,14 L23,14 L23,13 L18,13 L18,20 L19,20 L19,17 L22,17 L22,16 L19,16 L19,16 Z M25,16 L25,14 L29,14 L29,13 L24,13 L24,20 L25,20 L25,17 L28,17 L28,16 L25,16 L25,16 Z" id="document-file-tiff"></path>
        </g>
    </g>
</svg>