<?xml version="1.0" encoding="UTF-8"?>
<svg width="32" height="27" viewBox="0 0 32 27" fill="none" xmlns="http://www.w3.org/2000/svg">
<path d="M19 10V7L13 0H2.00276C0.896666 0 0 0.898338 0 2.00733V24.9927C0 26.1013 0.890925 27 1.99742 27H17.0026C18.1057 27 19 26.1018 19 25.0092V23H29.0074C30.6602 23 32 21.6577 32 20.0012V12.9988C32 11.3426 30.6611 10 29.0074 10H19ZM18 23V25.0066C18 25.5551 17.5523 26 17 26H1.99996C1.45471 26 1 25.5543 1 25.0045V1.99546C1 1.45526 1.44574 1 1.99558 1H12V5.99408C12 7.11345 12.8945 8 13.9979 8H18V10H7.99263C6.33985 10 5 11.3423 5 12.9988V20.0012C5 21.6574 6.33893 23 7.99263 23H18ZM28.9964 11C30.1102 11 31 11.8919 31 12.992V20.008C31 21.0998 30.103 22 28.9964 22H8.00359C6.88976 22 6 21.1081 6 20.008V12.992C6 11.9002 6.89704 11 8.00359 11H28.9964ZM13 1.5L17.7 7H13.9967C13.4507 7 13 6.54835 13 5.99122V1.5Z" fill="#157EFB"/>
<path d="M15.4765 13.8082H13.2326V20.0317H12.3168V13.8082H10.0777V13.0507H15.4765V13.8082ZM18.7897 15.7261L20.463 13.0507H21.5466L19.3411 16.5124L21.5994 20.0317H20.5062L18.7897 17.3083L17.0636 20.0317H15.9752L18.2383 16.5124L16.0279 13.0507H17.1067L18.7897 15.7261ZM27.4921 13.8082H25.2482V20.0317H24.3324V13.8082H22.0932V13.0507H27.4921V13.8082Z" fill="#007BFF"/>
</svg>
