<?xml version="1.0" encoding="UTF-8"?>
<svg width="32" height="27" viewBox="0 0 32 27" fill="none" xmlns="http://www.w3.org/2000/svg">
<path d="M19 10V7L13 0H2.00276C0.896666 0 0 0.898338 0 2.00733V24.9927C0 26.1013 0.890925 27 1.99742 27H17.0026C18.1057 27 19 26.1018 19 25.0092V23H29.0074C30.6602 23 32 21.6577 32 20.0012V12.9988C32 11.3426 30.6611 10 29.0074 10H19ZM18 23V25.0066C18 25.5551 17.5523 26 17 26H1.99996C1.45471 26 1 25.5543 1 25.0045V1.99546C1 1.45526 1.44574 1 1.99558 1H12V5.99408C12 7.11345 12.8945 8 13.9979 8H18V10H7.99263C6.33985 10 5 11.3423 5 12.9988V20.0012C5 21.6574 6.33893 23 7.99263 23H18ZM28.9964 11C30.1102 11 31 11.8919 31 12.992V20.008C31 21.0998 30.103 22 28.9964 22H8.00359C6.88976 22 6 21.1081 6 20.008V12.992C6 11.9002 6.89704 11 8.00359 11H28.9964ZM13 1.5L17.7 7H13.9967C13.4507 7 13 6.54835 13 5.99122V1.5Z" fill="#157EFB"/>
<path d="M9.85341 15.7261L11.5268 13.0507H12.6104L10.4048 16.5124L12.6631 20.0317H11.5699L9.85341 17.3083L8.12732 20.0317H7.03892L9.30202 16.5124L7.09166 13.0507H8.17047L9.85341 15.7261ZM14.6577 19.279H17.9661V20.0317H13.7323V13.0507H14.6577V19.279ZM21.2936 15.7261L22.9669 13.0507H24.0505L21.845 16.5124L24.1033 20.0317H23.0101L21.2936 17.3083L19.5675 20.0317H18.4791L20.7422 16.5124L18.5318 13.0507H19.6106L21.2936 15.7261ZM27.2294 16.92C26.4399 16.693 25.8645 16.4149 25.5033 16.0857C25.1453 15.7533 24.9663 15.3441 24.9663 14.8583C24.9663 14.3085 25.1853 13.8546 25.6232 13.4966C26.0643 13.1354 26.6365 12.9548 27.3397 12.9548C27.8192 12.9548 28.2459 13.0475 28.6199 13.2328C28.9971 13.4182 29.2879 13.674 29.4925 14C29.7003 14.326 29.8042 14.6824 29.8042 15.0692H28.8788C28.8788 14.6473 28.7445 14.3165 28.476 14.0767C28.2075 13.8338 27.8288 13.7123 27.3397 13.7123C26.8858 13.7123 26.531 13.813 26.2753 14.0144C26.0227 14.2126 25.8965 14.4891 25.8965 14.8439C25.8965 15.1284 26.0164 15.3697 26.2561 15.5679C26.499 15.7629 26.9098 15.9419 27.4883 16.1049C28.0701 16.2679 28.524 16.4485 28.85 16.6467C29.1793 16.8417 29.4222 17.0702 29.5788 17.3323C29.7386 17.5944 29.8186 17.9029 29.8186 18.2577C29.8186 18.8235 29.598 19.2774 29.1569 19.6194C28.7158 19.9582 28.126 20.1276 27.3876 20.1276C26.9082 20.1276 26.4607 20.0365 26.0451 19.8543C25.6296 19.6689 25.3083 19.4164 25.0814 19.0968C24.8576 18.7771 24.7458 18.4143 24.7458 18.0084H25.6711C25.6711 18.4303 25.8262 18.7643 26.1362 19.0105C26.4495 19.2534 26.8666 19.3749 27.3876 19.3749C27.8735 19.3749 28.2459 19.2758 28.5048 19.0776C28.7637 18.8794 28.8932 18.6093 28.8932 18.2673C28.8932 17.9253 28.7733 17.6616 28.5336 17.4762C28.2938 17.2876 27.8591 17.1022 27.2294 16.92Z" fill="#007BFF"/>
</svg>
