<?xml version="1.0" encoding="UTF-8"?>
<svg width="18px" height="17px" viewBox="0 0 18 17" version="1.1" xmlns="http://www.w3.org/2000/svg" xmlns:xlink="http://www.w3.org/1999/xlink">
    <!-- Generator: Sketch 61.2 (89653) - https://sketch.com -->
    <title>xml</title>
    <desc>Created with Sketch.</desc>
    <g id="Symbols" stroke="none" stroke-width="1" fill="none" fill-rule="evenodd">
        <g id="file-xml" fill="#0067F4" fill-rule="nonzero">
            <g id="xml">
                <path d="M11.4,6.2962963 L11.4,4.40740741 L11.4,4.40740741 L7.8,0 L1.20165608,0 C0.53799975,0 0,0.565620424 0,1.26387441 L0,15.7361256 C0,16.4341442 0.534555234,17 1.19845315,17 L10.2015469,17 C10.8634343,17 11.4,16.4344589 11.4,15.7465364 L11.4,14.4814815 L16.195891,14.4814815 C17.1922729,14.4814815 18,13.6363521 18,12.5933572 L18,8.18442056 C18,7.14163836 17.1984051,6.2962963 16.195891,6.2962963 L11.4,6.2962963 L11.4,6.2962963 L11.4,6.2962963 Z M10.8,14.4814815 L10.8,15.7448977 C10.8,16.090219 10.5313816,16.3703704 10.2000239,16.3703704 L1.19997612,16.3703704 C0.872825358,16.3703704 0.6,16.0897562 0.6,15.7436011 L0.6,1.25639887 C0.6,0.916276628 0.867441138,0.62962963 1.1973465,0.62962963 L7.2,0.62962963 L7.2,3.77405097 C7.2,4.47883587 7.73669772,5.03703704 8.39874786,5.03703704 L10.8,5.03703704 L10.8,6.2962963 L6.00410898,6.2962963 C5.00772714,6.2962963 4.2,7.14142567 4.2,8.18442056 L4.2,12.5933572 C4.2,13.6361394 5.0015949,14.4814815 6.00410898,14.4814815 L10.8,14.4814815 L10.8,14.4814815 L10.8,14.4814815 Z M16.2032631,6.92592593 C16.8585937,6.92592593 17.4,7.48746514 17.4,8.18015885 L17.4,8.18015885 L17.4,12.5976189 C17.4,13.2850742 16.8642026,13.8518519 16.2032631,13.8518519 L16.2032631,13.8518519 L5.9967369,13.8518519 C5.34140628,13.8518519 4.8,13.2903126 4.8,12.5976189 L4.8,12.5976189 L4.8,8.18015885 C4.8,7.49270353 5.33579736,6.92592593 5.9967369,6.92592593 L5.9967369,6.92592593 Z M7.8,0.944444444 L10.6199707,4.40740741 L8.39804328,4.40740741 C8.07039066,4.40740741 7.8,4.12303624 7.8,3.77224663 L7.8,3.77224663 L7.8,0.944444444 Z M7.2,10.3888889 L6,8.18518519 L6.6,8.18518519 L7.5,9.83796296 L8.4,8.18518519 L9,8.18518519 L7.8,10.3888889 L9,12.5925926 L8.4,12.5925926 L7.5,10.9398148 L6.6,12.5925926 L6,12.5925926 L7.2,10.3888889 L7.2,10.3888889 Z M11.1,10.0740741 L10.2,8.18518519 L9.9,8.18518519 L9.6,8.18518519 L9.6,12.5925926 L10.2,12.5925926 L10.2,9.44444444 L10.8,10.7037037 L11.1,10.7037037 L11.4,10.7037037 L12,9.44444444 L12,12.5925926 L12.6,12.5925926 L12.6,8.18518519 L12.3,8.18518519 L12,8.18518519 L11.1,10.0740741 L11.1,10.0740741 Z M16.2,11.962963 L16.2,12.5925926 L13.2,12.5925926 L13.2,8.18518519 L13.8,8.18518519 L13.8,11.962963 L16.2,11.962963 L16.2,11.962963 Z" id="document-file-xml"></path>
            </g>
        </g>
    </g>
</svg>