<?xml version="1.0" encoding="UTF-8"?>
<svg width="32" height="27" viewBox="0 0 32 27" fill="none" xmlns="http://www.w3.org/2000/svg">
<path d="M19 10V7L13 0H2.00276C0.896666 0 0 0.898338 0 2.00733V24.9927C0 26.1013 0.890925 27 1.99742 27H17.0026C18.1057 27 19 26.1018 19 25.0092V23H29.0074C30.6602 23 32 21.6577 32 20.0012V12.9988C32 11.3426 30.6611 10 29.0074 10H19ZM18 23V25.0066C18 25.5551 17.5523 26 17 26H1.99996C1.45471 26 1 25.5543 1 25.0045V1.99546C1 1.45526 1.44574 1 1.99558 1H12V5.99408C12 7.11345 12.8945 8 13.9979 8H18V10H7.99263C6.33985 10 5 11.3423 5 12.9988V20.0012C5 21.6574 6.33893 23 7.99263 23H18ZM28.9964 11C30.1102 11 31 11.8919 31 12.992V20.008C31 21.0998 30.103 22 28.9964 22H8.00359C6.88976 22 6 21.1081 6 20.008V12.992C6 11.9002 6.89704 11 8.00359 11H28.9964ZM13 1.5L17.7 7H13.9967C13.4507 7 13 6.54835 13 5.99122V1.5Z" fill="#157EFB"/>
<path d="M12.825 19.279H16.8189V20.0317H11.7366V19.3413L15.5627 13.8082H11.7989V13.0507H16.6655V13.7267L12.825 19.279ZM19.0005 20.0317H18.08V13.0507H19.0005V20.0317ZM21.6089 17.2988V20.0317H20.6883V13.0507H23.263C24.027 13.0507 24.6247 13.2456 25.0562 13.6356C25.491 14.0256 25.7083 14.5418 25.7083 15.1843C25.7083 15.8619 25.4958 16.3846 25.0706 16.7522C24.6487 17.1166 24.043 17.2988 23.2534 17.2988H21.6089ZM21.6089 16.546H23.263C23.7553 16.546 24.1325 16.4309 24.3946 16.2008C24.6567 15.9674 24.7877 15.6318 24.7877 15.1939C24.7877 14.7783 24.6567 14.4459 24.3946 14.1966C24.1325 13.9473 23.7729 13.8178 23.3158 13.8082H21.6089V16.546Z" fill="#007BFF"/>
</svg>
