<svg width="200" height="67" viewBox="0 0 200 67" fill="none" xmlns="http://www.w3.org/2000/svg">
<path d="M23.9135 43.3724V33.643H11.0776V0H0V43.3724H23.9135Z" fill="#5D819D"/>
<path d="M56.9882 43.3724V10.8431H47.2587V14.3012H47.1414C45.2073 11.0776 41.2217 9.72949 37.6464 9.72949C27.8583 9.72949 21.2938 17.5834 21.2938 27.0785C21.2938 36.7494 27.6238 44.4861 37.6464 44.4861C41.1631 44.4861 45.3831 43.1966 47.1414 39.8558H47.2587V43.3724H56.9882ZM47.2587 27.0785C47.2587 31.7674 43.8592 35.4013 39.1117 35.4013C34.54 35.4013 31.0233 31.7088 31.0233 27.1957C31.0233 22.5654 34.3055 18.8143 39.0531 18.8143C43.8006 18.8143 47.2587 22.3309 47.2587 27.0785Z" fill="#5D819D"/>
<path d="M89.1718 43.3724V23.0343C89.1718 19.2245 88.527 15.1217 85.4206 12.5428C83.3106 10.7845 79.8526 9.72949 77.0978 9.72949C73.1709 9.72949 70.2989 10.9603 68.2475 14.3012H68.1303V10.8431H59.0455V43.3724H68.775V25.6718C68.775 21.8034 69.83 18.8729 74.3431 18.8729C78.7389 18.8729 79.4423 21.9793 79.4423 25.6132V43.3724H89.1718Z" fill="#5D819D"/>
<path d="M115.42 33.4085C115.42 21.9207 99.0675 24.7926 99.0675 19.6934C99.0675 18.2281 100.533 17.5248 101.822 17.5248C103.522 17.5248 104.811 18.1695 104.87 19.9865H114.424C113.779 13.0703 108.445 9.72949 101.939 9.72949C95.668 9.72949 89.338 13.6565 89.338 20.4554C89.338 25.0271 93.2063 27.5474 97.0747 28.954C98.4814 29.4815 99.888 29.9504 101.295 30.4193C103.053 31.1227 105.691 31.826 105.691 34.1705C105.691 35.8702 103.756 36.6907 102.291 36.6907C100.357 36.6907 98.8916 35.6944 98.5986 33.7016H88.9277C89.6897 40.8522 95.375 44.4861 102.174 44.4861C108.797 44.4861 115.42 40.7349 115.42 33.4085Z" fill="#5D819D"/>
<path d="M131.598 18.2281V10.8431H126.909V0H117.18V10.8431H112.374V18.2281H117.18V43.3724H126.909V18.2281H131.598Z" fill="#5D819D"/>
<path d="M164.065 43.3724V10.8431H154.336V14.3012H154.219C152.284 11.0776 148.299 9.72949 144.723 9.72949C134.935 9.72949 128.371 17.5834 128.371 27.0785C128.371 36.7494 134.701 44.4861 144.723 44.4861C148.24 44.4861 152.46 43.1966 154.219 39.8558H154.336V43.3724H164.065ZM154.336 27.0785C154.336 31.7674 150.936 35.4013 146.189 35.4013C141.617 35.4013 138.1 31.7088 138.1 27.1957C138.1 22.5654 141.383 18.8143 146.13 18.8143C150.878 18.8143 154.336 22.3309 154.336 27.0785Z" fill="#5D819D"/>
<path d="M200 43.3724V0H190.271V13.5978C187.633 10.9017 184.468 9.72949 180.717 9.72949C170.929 9.72949 164.599 17.5834 164.599 27.0199C164.599 36.6321 170.929 44.4275 180.893 44.4275C184.702 44.4275 188.571 43.3138 190.622 39.8558H190.739V43.3724H200ZM190.798 26.9613C190.798 31.7674 187.34 35.3427 182.475 35.3427C177.61 35.3427 174.328 31.7088 174.328 26.9613C174.328 22.2137 177.904 18.8143 182.592 18.8143C187.281 18.8143 190.798 22.2723 190.798 26.9613Z" fill="#5D819D"/>
<path d="M151 67C151 57.0589 159.059 49 169 49H200V49C200 58.9411 191.941 67 182 67H151V67Z" fill="#C1CAD6"/>
<path d="M161.99 62V53.4688H164.779C165.705 53.4688 166.4 53.6602 166.865 54.043C167.334 54.4258 167.568 54.9922 167.568 55.7422C167.568 56.1406 167.455 56.4941 167.229 56.8027C167.002 57.1074 166.693 57.3438 166.303 57.5117C166.764 57.6406 167.127 57.8867 167.393 58.25C167.662 58.6094 167.797 59.0391 167.797 59.5391C167.797 60.3047 167.549 60.9062 167.053 61.3438C166.557 61.7812 165.855 62 164.949 62H161.99ZM163.115 58.0098V61.0801H164.973C165.496 61.0801 165.908 60.9453 166.209 60.6758C166.514 60.4023 166.666 60.0273 166.666 59.5508C166.666 58.5234 166.107 58.0098 164.99 58.0098H163.115ZM163.115 57.1074H164.814C165.307 57.1074 165.699 56.9844 165.992 56.7383C166.289 56.4922 166.438 56.1582 166.438 55.7363C166.438 55.2676 166.301 54.9277 166.027 54.7168C165.754 54.502 165.338 54.3945 164.779 54.3945H163.115V57.1074ZM174.289 58.0566H170.592V61.0801H174.887V62H169.467V53.4688H174.828V54.3945H170.592V57.1367H174.289V58.0566ZM182.299 54.3945H179.557V62H178.438V54.3945H175.701V53.4688H182.299V54.3945ZM187.807 59.7734H184.232L183.43 62H182.27L185.527 53.4688H186.512L189.775 62H188.621L187.807 59.7734ZM184.572 58.8477H187.473L186.02 54.8574L184.572 58.8477Z" fill="white"/>
</svg>
