<svg width="259" height="485" viewBox="0 0 259 485" fill="none" xmlns="http://www.w3.org/2000/svg">
<rect x="84.3652" y="415.467" width="13.4302" height="13.4302" transform="rotate(-34.9125 84.3652 415.467)" fill="#AFBDCB"/>
<rect x="50.542" y="343.258" width="13.4302" height="13.4302" transform="rotate(-30 50.542 343.258)" fill="#5D819D"/>
<rect x="179.385" y="325" width="13.4302" height="13.4302" transform="rotate(23.6353 179.385 325)" fill="#AFBDCB"/>
<rect x="152.963" y="465.382" width="13.4302" height="13.4302" transform="rotate(34.3662 152.963 465.382)" fill="#AFBDCB"/>
<rect x="222.383" y="414.822" width="13.4302" height="13.4302" transform="rotate(24.4551 222.383 414.822)" fill="#5D819D"/>
<rect x="120" y="365" width="13.4302" height="13.4302" fill="#5D819D"/>
<rect x="197" y="263" width="13.4302" height="13.4302" fill="#5D819D"/>
<rect x="253.416" y="336.969" width="13.4302" height="13.4302" transform="rotate(67.9343 253.416 336.969)" fill="#AFBDCB"/>
<rect x="30.7559" y="240.423" width="13.4302" height="13.4302" transform="rotate(33.0971 30.7559 240.423)" fill="#AFBDCB"/>
<rect x="1" y="412.947" width="13.4302" height="46.2595" transform="rotate(-30.0558 1 412.947)" fill="#5D819D"/>
<path d="M24.1684 452.986L17.442 441.361L43.2738 426.414L50.0002 438.038L24.1684 452.986Z" fill="#5D819D"/>
<path opacity="0.3" d="M1 369V72" stroke="#AFBDCB"/>
<path d="M250 293V74" stroke="#AFBDCB"/>
<path opacity="0.2" d="M204 213L204 123" stroke="#AFBDCB"/>
<path opacity="0.2" d="M34 170L34 74" stroke="#AFBDCB"/>
<path opacity="0.5" d="M154 424L154 74" stroke="#AFBDCB"/>
<path d="M94 350L94 0" stroke="#AFBDCB"/>
</svg>
