<svg width="263" height="59" viewBox="0 0 263 59" fill="none" xmlns="http://www.w3.org/2000/svg">
<path d="M74.8869 56.9962V14.249H62.1013V18.7933H61.9472C59.4055 14.5571 54.168 12.7856 49.4697 12.7856C36.607 12.7856 27.9806 23.1066 27.9806 35.5841C27.9806 48.2927 36.299 58.4596 49.4697 58.4596C54.091 58.4596 59.6366 56.7651 61.9472 52.3749H62.1013V56.9962H74.8869ZM62.1013 35.5841C62.1013 41.7458 57.634 46.5212 51.3952 46.5212C45.3875 46.5212 40.7662 41.6688 40.7662 35.7381C40.7662 29.6534 45.0795 24.724 51.3182 24.724C57.557 24.724 62.1013 29.3453 62.1013 35.5841Z" fill="#5D819D"/>
<path d="M117.18 56.9962V30.2696C117.18 25.2632 116.332 19.8716 112.25 16.4827C109.478 14.172 104.933 12.7856 101.313 12.7856C96.1528 12.7856 92.3787 14.4031 89.6829 18.7933H89.5289V14.249H77.5905V56.9962H90.3761V33.7356C90.3761 28.6521 91.7625 24.801 97.6932 24.801C103.47 24.801 104.394 28.8832 104.394 33.6586V56.9962H117.18Z" fill="#5D819D"/>
<path d="M151.673 43.9025C151.673 28.8062 130.184 32.5802 130.184 25.8793C130.184 23.9538 132.109 23.0295 133.804 23.0295C136.037 23.0295 137.732 23.8768 137.809 26.2645H150.364C149.516 17.1759 142.507 12.7856 133.958 12.7856C125.717 12.7856 117.398 17.9461 117.398 26.8806C117.398 32.8883 122.482 36.2003 127.565 38.0488C129.414 38.742 131.262 39.3582 133.111 39.9743C135.421 40.8986 138.887 41.8229 138.887 44.9037C138.887 47.1374 136.346 48.2157 134.42 48.2157C131.878 48.2157 129.953 46.9063 129.568 44.2876H116.859C117.86 53.6842 125.331 58.4596 134.266 58.4596C142.969 58.4596 151.673 53.5302 151.673 43.9025Z" fill="#5D819D"/>
<path d="M172.933 23.9538V14.249H166.771V0H153.985V14.249H147.67V23.9538H153.985V56.9962H166.771V23.9538H172.933Z" fill="#5D819D"/>
<path d="M215.598 56.9962V14.249H202.812V18.7933H202.658C200.117 14.5571 194.879 12.7856 190.181 12.7856C177.318 12.7856 168.692 23.1066 168.692 35.5841C168.692 48.2927 177.01 58.4596 190.181 58.4596C194.802 58.4596 200.348 56.7651 202.658 52.3749H202.812V56.9962H215.598ZM202.812 35.5841C202.812 41.7458 198.345 46.5212 192.106 46.5212C186.099 46.5212 181.477 41.6688 181.477 35.7381C181.477 29.6534 185.791 24.724 192.029 24.724C198.268 24.724 202.812 29.3453 202.812 35.5841Z" fill="#5D819D"/>
<path d="M262.82 56.9962V0H250.035V17.8691C246.569 14.3261 242.409 12.7856 237.48 12.7856C224.617 12.7856 216.299 23.1066 216.299 35.5071C216.299 48.1387 224.617 58.3826 237.711 58.3826C242.718 58.3826 247.801 56.9192 250.497 52.3749H250.651V56.9962H262.82ZM250.728 35.4301C250.728 41.7458 246.184 46.4442 239.791 46.4442C233.398 46.4442 229.085 41.6688 229.085 35.4301C229.085 29.1913 233.783 24.724 239.945 24.724C246.106 24.724 250.728 29.2683 250.728 35.4301Z" fill="#5D819D"/>
<path d="M31.4249 56.9962V44.2105H14.5571V0H0V56.9962H31.4249Z" fill="#5D819D"/>
</svg>
